<svg xmlns="http://www.w3.org/2000/svg" viewBox="0 0 260 260"><defs><style>.cls-1{fill:#34495e;}</style></defs><title>logo_cobalt</title><g id="Layer_2" data-name="Layer 2"><g id="Layer_1-2" data-name="Layer 1"><path class="cls-1" d="M85.72,152.34,34.05,32H47.12L92.18,137.19ZM124.09,32H137L95.33,129.73l-6.46-13.92Z"/><path class="cls-1" d="M156.85,147h-12V32h12Zm3.23-65.35L209.67,32h15.76L168.92,88.36,229.2,147h-17l-52.13-50.9Z"/><path class="cls-1" d="M38.84,177.36l22.47,42.09,22.23-42.09,5.62,51.75H84l-3.78-34.7-19,35.94-19.12-36-3.68,34.77H33.23Z"/><path class="cls-1" d="M92.63,179.13h30.76v4.45H97.85v17.65h24.3v4.48H97.85v19h25.54v4.44H92.63Z"/><path class="cls-1" d="M128.84,179.13H143c.91,0,2,.05,3.33.14a30.46,30.46,0,0,1,3.72.47,25.63,25.63,0,0,1,7.71,2.75,22.64,22.64,0,0,1,6.27,5.14,24.12,24.12,0,0,1,4.21,7.28,26.23,26.23,0,0,1,1.54,9.13,25.59,25.59,0,0,1-1.41,8.64,25,25,0,0,1-3.86,7.12,23.49,23.49,0,0,1-5.85,5.35,24.78,24.78,0,0,1-7.3,3.2,18.85,18.85,0,0,1-3.8.63c-1.35.09-2.82.13-4.43.13H128.84Zm14,45.54c1.42,0,2.75,0,4-.14a16.74,16.74,0,0,0,3.41-.57,17.3,17.3,0,0,0,5.8-2.65,19.76,19.76,0,0,0,4.52-4.42,20.06,20.06,0,0,0,2.94-5.78,22.16,22.16,0,0,0,1-6.9,23.81,23.81,0,0,0-1.09-7.41,19.06,19.06,0,0,0-3.07-5.93,17.68,17.68,0,0,0-4.76-4.28,20.39,20.39,0,0,0-6.12-2.48,19.93,19.93,0,0,0-3.3-.43c-1.23-.07-2.35-.1-3.35-.1h-8.76v41.09Z"/><path class="cls-1" d="M174.24,179.13h5.22v50h-5.22Z"/><path class="cls-1" d="M205.33,176.79l22.3,52.32H222l-5.69-13.47h-22l-5.75,13.47h-5.68Zm9,34.44-9.1-21.83-9.06,21.83Z"/><polyline class="cls-1" points="0 0 0 260 8 260 8 0"/><polyline class="cls-1" points="0 8 60 8 60 0 0 0"/><polyline class="cls-1" points="0 260 60 260 60 252 0 252"/><rect class="cls-1" x="252" width="8" height="260"/><rect class="cls-1" x="200" y="252" width="60" height="8"/><rect class="cls-1" x="200" width="60" height="8"/></g></g></svg>